<?xml version="1.0" encoding="UTF-8" standalone="no" ?>
<!DOCTYPE svg PUBLIC "-//W3C//DTD SVG 1.1//EN" "http://www.w3.org/Graphics/SVG/1.1/DTD/svg11.dtd">
<svg xmlns="http://www.w3.org/2000/svg" xmlns:xlink="http://www.w3.org/1999/xlink" version="1.1" width="1280" height="1024" viewBox="0 0 1280 1024" xml:space="preserve">
<desc>Created with Fabric.js 5.3.0</desc>
<defs>
</defs>
<g transform="matrix(1 0 0 1 640 512)" id="background-logo"  >
<rect style="stroke: none; stroke-width: 0; stroke-dasharray: none; stroke-linecap: butt; stroke-dashoffset: 0; stroke-linejoin: miter; stroke-miterlimit: 4; fill: rgb(255,255,255); fill-opacity: 0; fill-rule: nonzero; opacity: 1;"  paint-order="stroke"  x="-640" y="-512" rx="0" ry="0" width="1280" height="1024" />
</g>
<g transform="matrix(1.9592939911577176 0 0 1.9592939911577176 639.0610902255639 576.4647078602038)" id="logo-logo"  >
<g style=""  paint-order="stroke"   >
		<g transform="matrix(0.8349284630774504 0 0 0.562898663837026 -171.0625570320814 0)"  >
<g style=""  paint-order="stroke"   >
		<g transform="matrix(1 0 0 1 0 0)"  >
<rect style="stroke: none; stroke-width: 0; stroke-dasharray: none; stroke-linecap: butt; stroke-dashoffset: 0; stroke-linejoin: miter; stroke-miterlimit: 4; fill: rgb(45,42,50); fill-rule: nonzero; opacity: 1;"  paint-order="stroke"  x="-100" y="-2.5" rx="0" ry="0" width="200" height="5" />
</g>
</g>
</g>
		<g transform="matrix(0.8349284630774504 0 0 0.562898663837026 171.06255703208132 0)"  >
<g style=""  paint-order="stroke"   >
		<g transform="matrix(1 0 0 1 0 0)"  >
<rect style="stroke: none; stroke-width: 0; stroke-dasharray: none; stroke-linecap: butt; stroke-dashoffset: 0; stroke-linejoin: miter; stroke-miterlimit: 4; fill: rgb(45,42,50); fill-rule: nonzero; opacity: 1;"  paint-order="stroke"  x="-100" y="-2.5" rx="0" ry="0" width="200" height="5" />
</g>
</g>
</g>
</g>
</g>
<g transform="matrix(1.9211538461538462 0 0 1.9211538461538462 639.1705959947947 488.21611653839966)" id="text-logo"  >
<g style=""  paint-order="stroke"   >
		<g transform="matrix(1 0 0 1 0 0)" id="text-logo-path-0"  >
<path style="stroke: none; stroke-width: 0; stroke-dasharray: none; stroke-linecap: butt; stroke-dashoffset: 0; stroke-linejoin: miter; stroke-miterlimit: 4; fill: rgb(76,61,116); fill-rule: nonzero; opacity: 1;"  paint-order="stroke"  transform=" translate(-175.19000000000003, 19.95)" d="M 19.78 0 L 37.22 -39.9 L 2.28 -39.9 Z M 47.48 -39.9 L 47.48 0 L 58.03 0 L 58.03 -39.9 Z M 68.29 -39.9 L 68.29 0 L 105.91 0 L 105.91 -39.9 L 87.1 -19.95 Z M 116.17 0 L 154.53 0 L 135.38 -39.9 Z M 131.5 -9.29 L 135.38 -18.07 L 139.19 -9.29 Z M 164.79 -39.9 L 164.79 0 L 197.28 0 L 197.28 -39.9 L 183.88 -39.9 L 183.88 -26.68 Z M 207.54 0 L 245.9 0 L 226.75 -39.9 Z M 222.87 -9.29 L 226.75 -18.07 L 230.56 -9.29 Z M 273.26 -39.9 L 273.26 0 L 283.8 0 L 283.8 -14.14 L 297.03 -14.14 L 297.03 -25.76 L 290.64 -25.76 L 302.9 -39.9 Z M 313.16 0 L 348.1 0 L 332.82 -20.8 L 346.45 -39.9 L 314.81 -39.9 L 328.49 -20.8 Z" stroke-linecap="round" />
</g>
</g>
</g>
<g transform="matrix(1.9211538461538462 0 0 1.9211538461538462 641.2149920705682 575.7545569352656)" id="tagline-f506cb6e-4195-4c26-bca9-5fb6d6f1b57b-logo"  >
<g style=""  paint-order="stroke"   >
		<g transform="matrix(1 0 0 1 0 0)" id="tagline-f506cb6e-4195-4c26-bca9-5fb6d6f1b57b-logo-path-0"  >
<path style="stroke: none; stroke-width: 0; stroke-dasharray: none; stroke-linecap: butt; stroke-dashoffset: 0; stroke-linejoin: miter; stroke-miterlimit: 4; fill: rgb(45,42,50); fill-rule: nonzero; opacity: 1;"  paint-order="stroke"  transform=" translate(-82.33500000000001, 5.25)" d="M 7.8 -7.95 L 7.8 -10.5 L 0.45 -10.5 L 0.45 -7.95 L 2.7 -7.95 L 2.7 0 L 5.55 0 L 5.55 -7.95 Z M 13.05 -10.5 L 10.2 -10.5 L 10.2 0 L 13.05 0 L 13.05 -4.13 L 15.52 -4.13 L 15.52 0 L 18.38 0 L 18.38 -10.5 L 15.52 -10.5 L 15.52 -6.67 L 13.05 -6.67 Z M 27.52 -7.95 L 27.52 -10.5 L 20.77 -10.5 L 20.77 0 L 27.52 0 L 27.52 -2.55 L 23.63 -2.55 L 23.63 -4.13 L 26.46 -4.13 L 26.46 -6.67 L 23.63 -6.67 L 23.63 -7.95 Z M 43.81 -7.95 L 43.81 -10.5 L 37.06 -10.5 L 37.06 0 L 39.91 0 L 39.91 -3.52 L 42.75 -3.52 L 42.75 -6.08 L 39.91 -6.08 L 39.91 -7.95 Z M 46.21 0 L 52.96 0 L 52.96 -2.55 L 49.06 -2.55 L 49.06 -10.5 L 46.21 -10.5 Z M 59.46 -6.99 L 58.21 -10.5 L 55.36 -10.5 L 58.03 -4.21 L 58.03 0 L 60.88 0 L 60.88 -4.21 L 63.54 -10.5 L 60.69 -10.5 Z M 68.79 -10.5 L 65.94 -10.5 L 65.94 0 L 68.79 0 Z M 76.81 -4.53 L 74.34 -10.5 L 71.19 -10.5 L 71.19 0 L 74.04 0 L 74.04 -5.8 L 76.45 0 L 79.66 0 L 79.66 -10.5 L 76.81 -10.5 Z M 83.02 -1.44 C 83.74 -0.38 84.87 0.22 86.17 0.22 C 89.27 0.2 90.3 -2.65 90.3 -5.25 L 90.27 -6.08 L 85.99 -6.08 L 85.99 -3.52 L 87.21 -3.52 C 86.98 -2.97 86.76 -2.64 86.11 -2.64 C 85 -2.64 84.91 -4.5 84.91 -5.25 C 84.91 -6.06 85 -7.88 86.17 -7.88 C 86.5 -7.88 86.85 -7.79 87.12 -7.18 L 89.71 -8.36 C 89.07 -9.82 87.79 -10.72 86.17 -10.72 C 84.87 -10.72 83.76 -10.13 83.02 -9.06 C 82.38 -8.13 82.06 -6.84 82.06 -5.25 C 82.06 -3.66 82.38 -2.38 83.02 -1.44 Z M 104.14 -3.25 L 102.69 -10.5 L 99.84 -10.5 L 102.39 0 L 105.89 0 L 108.47 -10.5 L 105.61 -10.5 Z M 113.72 -10.5 L 110.87 -10.5 L 110.87 0 L 113.72 0 Z M 118.28 -3.75 L 116.12 -1.89 C 117.23 -0.6 118.26 0.22 120.06 0.22 C 122.06 0.22 123.75 -1.08 123.75 -3.18 C 123.75 -5.12 122.37 -6.04 120.83 -6.79 C 120.41 -7 119.99 -7.21 119.75 -7.42 C 119.61 -7.54 119.61 -7.59 119.61 -7.65 C 119.61 -7.65 119.61 -7.71 119.63 -7.74 C 119.64 -7.77 119.82 -7.88 120.14 -7.88 C 120.53 -7.88 121.01 -7.71 121.14 -7.3 L 121.14 -7.33 L 123.83 -8.28 C 123.26 -9.81 121.74 -10.72 120.14 -10.72 C 118.32 -10.72 116.76 -9.57 116.76 -7.65 C 116.76 -5.82 118.11 -4.96 119.55 -4.25 C 120.63 -3.71 120.9 -3.49 120.9 -3.18 C 120.9 -2.73 120.45 -2.63 120.06 -2.63 C 119.31 -2.63 119.01 -2.9 118.28 -3.75 Z M 129.08 -10.5 L 126.23 -10.5 L 126.23 -3.66 L 126.24 -3.66 C 126.24 -1.5 127.89 0.22 130.08 0.22 C 132.28 0.2 133.94 -1.45 133.94 -3.66 L 133.94 -10.5 L 131.09 -10.5 L 131.09 -3.66 C 131.09 -3.06 130.69 -2.64 130.08 -2.64 C 129.3 -2.64 129.09 -3.27 129.09 -3.66 L 129.08 -3.66 Z M 142.41 -10.5 L 138.93 -10.5 L 136.33 0 L 139.19 0 L 139.44 -1.27 L 141.85 -1.27 L 142.11 0 L 144.96 0 Z M 141.34 -3.82 L 139.97 -3.82 L 140.66 -7.25 Z M 147.36 0 L 154.11 0 L 154.11 -2.55 L 150.21 -2.55 L 150.21 -10.5 L 147.36 -10.5 Z M 158.67 -3.75 L 156.51 -1.89 C 157.62 -0.6 158.66 0.22 160.46 0.22 C 162.45 0.22 164.15 -1.08 164.15 -3.18 C 164.15 -5.12 162.77 -6.04 161.22 -6.79 C 160.8 -7 160.38 -7.21 160.14 -7.42 C 160 -7.54 160 -7.59 160 -7.65 C 160 -7.65 160 -7.71 160.02 -7.74 C 160.03 -7.77 160.22 -7.88 160.53 -7.88 C 160.92 -7.88 161.4 -7.71 161.53 -7.3 L 161.53 -7.33 L 164.22 -8.28 C 163.65 -9.81 162.13 -10.72 160.53 -10.72 C 158.72 -10.72 157.16 -9.57 157.16 -7.65 C 157.16 -5.82 158.5 -4.96 159.94 -4.25 C 161.03 -3.71 161.3 -3.49 161.3 -3.18 C 161.3 -2.73 160.84 -2.63 160.46 -2.63 C 159.71 -2.63 159.41 -2.9 158.67 -3.75 Z" stroke-linecap="round" />
</g>
</g>
</g>
<g transform="matrix(2.1272172317688227 0 0 2.1272172317688227 639.0610902255639 360.69955211408865)" id="shape-47af4f8b-a68a-4e35-9c52-d6b02077e315"  >
<g style=""  paint-order="stroke"   >
		<g transform="matrix(1 0 0 1 0 0)" id="path-01"  >
<path style="stroke: none; stroke-width: 1; stroke-dasharray: none; stroke-linecap: butt; stroke-dashoffset: 0; stroke-linejoin: miter; stroke-miterlimit: 4; fill: rgb(45,42,50); fill-rule: nonzero; opacity: 1;"  paint-order="stroke"  transform=" translate(154.9999693749968, -396.99999)" d="M -67.04079 371.11511 L -77.37377000000001 371.11511 C -78.44549 371.11511 -79.31505000000001 371.98459 -79.31505000000001 373.0563 L -79.31505000000001 379.44622000000004 L -117.6645 383.58147 C -118.22057000000001 383.64211 -118.77664 383.67241 -119.32265000000001 383.67241 C -123.07363000000001 383.67241 -126.71348 382.30751000000004 -129.62534000000002 379.88094 C -132.59780000000003 377.40392 -136.40950000000004 375.91762 -140.57506 375.91762 L -152.24271000000002 375.91762 L -152.24271000000002 374.53246 L -148.78484 374.53246 C -150.31156000000001 372.82378 -152.52578 371.74193 -155.00289 371.74193 C -157.46987000000001 371.74193 -159.6942 372.82378 -161.22092 374.53246 L -157.75293000000002 374.53246 L -157.75293000000002 375.91762 L -169.42058000000003 375.91762 C -173.58614000000003 375.91762 -177.39784000000003 377.40391999999997 -180.37030000000004 379.88094 C -183.29228000000003 382.30751000000004 -186.92200000000005 383.67241 -190.67299000000006 383.67241 C -191.22913000000005 383.67241 -191.78519000000006 383.64211 -192.33115000000006 383.59157 L -230.68059000000005 379.44621 L -230.68059000000005 373.05629 C -230.68059000000005 371.98456999999996 -231.55014000000006 371.1151 -232.63191000000006 371.1151 L -242.96496000000008 371.1151 C -244.03668000000008 371.1151 -244.91630000000006 371.98458 -244.91630000000006 373.05629 L -244.91630000000006 393.98521 C -244.91630000000006 397.90812 -241.73144000000008 401.09294 -237.79847000000007 401.09294 C -235.82690000000005 401.09294 -234.04742000000007 400.29422999999997 -232.76336000000006 399.01015 C -231.47935000000007 397.72615 -230.68058000000005 395.94667 -230.68058000000005 393.98522 L -230.68058000000005 393.10561 L -195.60696000000004 402.63988 C -191.18864000000005 403.84304000000003 -187.25567000000004 406.26955 -184.19213000000005 409.5656 C -185.37504000000004 404.61147 -185.13241000000005 398.52486 -184.37411000000006 394.00548000000003 L -183.00921000000005 394.23799 C -184.00002000000006 400.13249 -184.11123000000006 408.72648000000004 -181.17919000000006 413.56941 C -180.99720000000005 413.87272 -180.82528000000005 414.17604 -180.65342000000007 414.47941000000003 C -175.69921000000008 423.55869 -166.06385000000006 429.70594000000006 -155.00288000000006 429.70594000000006 C -149.46229000000005 429.70594000000006 -144.29574000000005 428.16911000000005 -139.87742000000006 425.49989000000005 C -135.46922000000006 422.82063000000005 -131.82943000000006 419.01906 -129.34220000000005 414.47941000000003 C -129.18046000000004 414.17603 -128.99840000000006 413.87272 -128.81643000000005 413.56941 C -127.00666000000005 410.58677 -126.35957000000005 406.1887 -126.35957000000005 401.86134 C -126.35957000000005 399.17195 -126.61233000000004 396.50275999999997 -126.99654000000005 394.23798999999997 L -125.63163000000006 394.00548 C -124.87334000000006 398.52486 -124.62058000000006 404.61147 -125.80350000000006 409.56559999999996 C -122.75008000000005 406.26955 -118.81711000000006 403.84304 -114.39873000000006 402.63987999999995 L -79.31504000000007 393.10560999999996 L -79.31504000000007 393.98521999999997 C -79.31504000000007 397.90812999999997 -76.13019000000007 401.09295 -72.20727000000007 401.09295 C -68.27423000000006 401.09295 -65.08944000000007 397.90813999999995 -65.08944000000007 393.98521999999997 L -65.08944000000007 373.0563 C -65.08945 371.98459 -65.95895 371.11511 -67.04079 371.11511 z M -201.16779 395.29959 L -202.36083 394.96594000000005 L -202.36083 390.83075 L -201.16779 390.96219 L -201.16779 395.29959 z M -198.8929 395.91632 L -200.08594 395.5928 L -200.08594 391.08349 L -198.8929 391.20482999999996 L -198.8929 395.91632 z M -196.61801 396.54318 L -197.81106 396.20959 L -197.81106 391.32614 L -196.61801 391.45758 L -196.61801 396.54318 z M -192.33115 389.11194 L -229.29544 385.11823 L -229.29544 391.49802 L -230.68059000000002 391.49802 L -230.68059000000002 381.0437 L -229.29544 381.0437 L -229.29544 384.0061 L -192.33115 387.99978 L -192.33115 389.11194 z M -155.00288 423.71033 C -166.51884 423.71033 -175.90144 414.33786 -175.90144 402.81177 C -175.90144 391.28574000000003 -166.51884 381.91321000000005 -155.00288 381.91321000000005 C -143.47679 381.91321000000005 -134.10431 391.28574000000003 -134.10431 402.81177 C -134.10431 414.33786 -143.47679 423.71033 -155.00288 423.71033 z M -112.12385 396.20959 L -113.32701 396.54318 L -113.32701 391.45758 L -112.12385 391.32614 L -112.12385 396.20959 z M -109.84897 395.5928 L -111.05212999999999 395.91632 L -111.05212999999999 391.20482999999996 L -109.84897 391.08349 L -109.84897 395.5928 z M -107.58421 394.96594 L -108.77726 395.29958999999997 L -108.77726 390.96218999999996 L -107.58421 390.83074999999997 L -107.58421 394.96594 z M -79.31505 391.49802 L -80.7002 391.49802 L -80.7002 385.12836 L -117.60383999999999 389.11194 L -117.60383999999999 387.99979 L -80.7002 384.01621 L -80.7002 381.04371 L -79.31505 381.04371 L -79.31505 391.49802 z M -239.82997 367.6687 C -241.86128 368.31573 -245.76938 369.05151 -253.04353 369.05151 C -261.69619 369.05151 -272.92602 368.0104 -279.45324 367.3161 C -280.18221 367.23852 -280.18221 366.17767 -279.45324 366.10016 C -272.92602 365.40573 -261.69619 364.36463000000003 -253.04353 364.36463000000003 C -245.67317 364.36463000000003 -241.7597 365.11991000000006 -239.75154 365.77292000000006 C -239.51007 364.91983000000005 -238.72740000000002 364.29404000000005 -237.79706000000002 364.29404000000005 C -236.86659 364.29404000000005 -236.08399000000003 364.91983000000005 -235.84258000000003 365.77292000000006 C -233.83434000000003 365.11990000000003 -229.92081000000002 364.36463000000003 -222.55047000000002 364.36463000000003 C -213.89779000000001 364.36463000000003 -202.66815000000003 365.40574000000004 -196.14082000000002 366.10016 C -195.41185000000002 366.17767000000003 -195.41185000000002 367.23853 -196.14082000000002 367.3161 C -202.66815000000003 368.01041 -213.89779000000001 369.05151 -222.55047000000002 369.05151 C -229.82455000000002 369.05151 -233.73277000000002 368.31573000000003 -235.76422000000002 367.6687 L -235.76422000000002 369.73031 L -239.82999 369.73031 L -239.82999 367.6687 z M -30.54666 367.31598 C -37.073859999999996 368.01041000000004 -48.30368 369.05151 -56.95631 369.05151 C -64.23045 369.05151 -68.13861 368.31573000000003 -70.16999 367.6687 L -70.16999 369.73044 L -74.23576 369.73044 L -74.23576 367.6687 C -76.26719 368.31573 -80.1753 369.05151 -87.44944 369.05151 C -96.10206 369.05151 -107.33188999999999 368.0104 -113.85901999999999 367.31598 C -114.58805999999998 367.23847 -114.58805999999998 366.17761 -113.85901999999999 366.1001 C -107.33187999999998 365.40573 -96.10204999999999 364.36463 -87.44943999999998 364.36463 C -80.07902999999999 364.36463 -76.16555999999999 365.11991 -74.15738999999998 365.77292 C -73.91591999999997 364.91976999999997 -73.13324999999998 364.29404 -72.20290999999997 364.29404 C -71.27244999999998 364.29404 -70.48989999999998 364.91976999999997 -70.24836999999998 365.77292 C -68.24013999999998 365.1199 -64.32666999999998 364.36463 -56.95631999999998 364.36463 C -48.30369999999998 364.36463 -37.07386999999998 365.40574 -30.546669999999978 366.1001 C -29.81774 366.17761 -29.81774 367.23846 -30.54666 367.31598 z M -144.36359 402.81262 C -144.36359 408.68685999999997 -149.12571 413.44890999999996 -154.99993999999998 413.44890999999996 C -157.16361999999998 413.44890999999996 -159.17562999999998 412.80188 -160.85395999999997 411.6896899999999 C -160.71244999999996 411.70991999999995 -160.57088999999996 411.7200499999999 -160.42931999999996 411.7200499999999 C -158.91272999999995 411.7200499999999 -157.67926999999997 410.5168599999999 -157.62867999999997 409.0103899999999 C -156.81983999999997 409.36423999999994 -155.93009999999998 409.5462199999999 -154.99993999999998 409.5462199999999 C -151.27925 409.5462199999999 -148.25620999999998 406.5231799999999 -148.25620999999998 402.8126099999999 C -148.25620999999998 402.2565499999999 -148.32698 401.7105299999999 -148.45842 401.1848299999999 C -147.37659 400.3860299999999 -146.66884 399.10196999999994 -146.66884 397.64609999999993 C -146.66884 396.9181299999999 -146.85082 396.22049999999996 -147.17435999999998 395.6138699999999 C -145.42525 397.50458 -144.36359 400.03223 -144.36359 402.81262 z M -150.157 393.34912 C -150.45018000000002 393.28842000000003 -150.7535 393.24798000000004 -151.06691 393.24798000000004 C -152.94753 393.24798000000004 -154.54495 394.42086000000006 -155.18193 396.07894000000005 C -158.81166 396.18008000000003 -161.73357 399.16271000000006 -161.73357 402.81261000000006 C -161.73357 404.02590000000004 -161.41008 405.15828000000005 -160.85395999999997 406.13896000000005 C -162.19868999999997 406.3412000000001 -163.24009999999998 407.50395000000003 -163.24009999999998 408.9193900000001 C -163.24009999999998 409.17214000000007 -163.19961999999998 409.41478000000006 -163.13896 409.6473900000001 C -164.69603 407.79714000000007 -165.62617 405.4211000000001 -165.62617 402.81261000000006 C -165.62617 396.9383700000001 -160.86407 392.17626000000007 -154.99993 392.17626000000007 C -153.25084 392.17627 -151.6028 392.60089 -150.157 393.34912 z M -149.93454 402.81262 C -149.93454 405.60314999999997 -152.20941 407.87805 -154.99994 407.87805 C -157.79048 407.87805 -160.05524 405.60314999999997 -160.05524 402.81262 C -160.05524 400.18384 -158.03313 398.01009999999997 -155.46506 397.77752 C -155.39427 400.1434 -153.46312 402.05431 -151.06691 402.05431 C -150.70294 402.05431 -150.35916 402.00377 -150.01544 401.92287 C -149.96489 402.20596 -149.93454 402.50931 -149.93454 402.81262 z M -163.2401 408.9194 C -163.2401 409.17215 -163.19962 409.41479 -163.13896000000003 409.6474 C -164.69603000000004 407.79715 -165.62617000000003 405.42111 -165.62617000000003 402.81262 C -165.62617000000003 396.93838 -160.86407000000003 392.17627 -154.99993000000003 392.17627 C -153.25083000000004 392.17627 -151.60279000000003 392.60089 -150.15699000000004 393.34911999999997 C -150.45017000000004 393.28842 -150.75349000000003 393.24798 -151.06690000000003 393.24798 C -152.94752000000003 393.24798 -154.54494000000003 394.42086 -155.18192000000002 396.07894 C -158.81165000000001 396.18008 -161.73356 399.16271 -161.73356 402.81261 C -161.73356 404.0259 -161.41007000000002 405.15828 -160.85395 406.13896 C -162.19868 406.34122 -163.2401 407.50397 -163.2401 408.9194 z M -151.06691 402.05432 C -150.70294 402.05432 -150.35916 402.00378 -150.01544 401.92288 C -149.96489000000003 402.20596 -149.93454 402.50931 -149.93454 402.81262000000004 C -149.93454 405.60315 -152.20941 407.87805000000003 -154.99994 407.87805000000003 C -157.79048 407.87805000000003 -160.05524 405.60315 -160.05524 402.81262000000004 C -160.05524 400.18384000000003 -158.03313 398.0101 -155.46506 397.77752000000004 C -155.39427 400.1434 -153.46312 402.05432 -151.06691 402.05432 z M -147.17436 395.61389 C -145.42525 397.50458000000003 -144.36358 400.03222000000005 -144.36358 402.81262000000004 C -144.36358 408.68686 -149.12570000000002 413.44891 -154.99993 413.44891 C -157.16361 413.44891 -159.17562 412.80188000000004 -160.85395 411.68969 C -160.71244 411.70992 -160.57088 411.72004999999996 -160.42931 411.72004999999996 C -158.91271999999998 411.72004999999996 -157.67926 410.51685999999995 -157.62867 409.01039 C -156.81983 409.36424 -155.93009 409.54621999999995 -154.99993 409.54621999999995 C -151.27924000000002 409.54621999999995 -148.2562 406.52317999999997 -148.2562 402.81260999999995 C -148.2562 402.25654999999995 -148.32697000000002 401.71052999999995 -148.45841000000001 401.18483 C -147.37658000000002 400.38603 -146.66883 399.10197 -146.66883 397.6461 C -146.66884 396.91815 -146.85081 396.22052 -147.17436 395.61389 z M -155.00288 383.03546 C -165.90205 383.03546 -174.77917 391.90246 -174.77917 402.81177 C -174.77917 413.72113 -165.90205 422.58808000000005 -155.00288 422.58808000000005 C -144.09358 422.58808000000005 -135.21646 413.72114000000005 -135.21646 402.81177 C -135.21646 391.90247 -144.09358 383.03546 -155.00288 383.03546 z M -155.00288 419.15051 C -164.0215 419.15051 -171.34155 411.84051 -171.34155 402.81176 C -171.34155 393.78301 -164.0215 386.47308 -155.00288 386.47308 C -145.97413 386.47308 -138.65408 393.78301999999996 -138.65408 402.81176 C -138.65408 411.8405 -145.97414 419.15051 -155.00288 419.15051 z M -163.2401 408.9194 C -163.2401 409.17215 -163.19962 409.41479 -163.13896000000003 409.6474 C -164.69603000000004 407.79715 -165.62617000000003 405.42111 -165.62617000000003 402.81262 C -165.62617000000003 396.93838 -160.86407000000003 392.17627 -154.99993000000003 392.17627 C -153.25083000000004 392.17627 -151.60279000000003 392.60089 -150.15699000000004 393.34911999999997 C -150.45017000000004 393.28842 -150.75349000000003 393.24798 -151.06690000000003 393.24798 C -152.94752000000003 393.24798 -154.54494000000003 394.42086 -155.18192000000002 396.07894 C -158.81165000000001 396.18008 -161.73356 399.16271 -161.73356 402.81261 C -161.73356 404.0259 -161.41007000000002 405.15828 -160.85395 406.13896 C -162.19868 406.34122 -163.2401 407.50397 -163.2401 408.9194 z M -151.06691 402.05432 C -150.70294 402.05432 -150.35916 402.00378 -150.01544 401.92288 C -149.96489000000003 402.20596 -149.93454 402.50931 -149.93454 402.81262000000004 C -149.93454 405.60315 -152.20941 407.87805000000003 -154.99994 407.87805000000003 C -157.79048 407.87805000000003 -160.05524 405.60315 -160.05524 402.81262000000004 C -160.05524 400.18384000000003 -158.03313 398.0101 -155.46506 397.77752000000004 C -155.39427 400.1434 -153.46312 402.05432 -151.06691 402.05432 z M -147.17436 395.61389 C -145.42525 397.50458000000003 -144.36358 400.03222000000005 -144.36358 402.81262000000004 C -144.36358 408.68686 -149.12570000000002 413.44891 -154.99993 413.44891 C -157.16361 413.44891 -159.17562 412.80188000000004 -160.85395 411.68969 C -160.71244 411.70992 -160.57088 411.72004999999996 -160.42931 411.72004999999996 C -158.91271999999998 411.72004999999996 -157.67926 410.51685999999995 -157.62867 409.01039 C -156.81983 409.36424 -155.93009 409.54621999999995 -154.99993 409.54621999999995 C -151.27924000000002 409.54621999999995 -148.2562 406.52317999999997 -148.2562 402.81260999999995 C -148.2562 402.25654999999995 -148.32697000000002 401.71052999999995 -148.45841000000001 401.18483 C -147.37658000000002 400.38603 -146.66883 399.10197 -146.66883 397.6461 C -146.66884 396.91815 -146.85081 396.22052 -147.17436 395.61389 z M -163.2401 408.9194 C -163.2401 409.17215 -163.19962 409.41479 -163.13896000000003 409.6474 C -164.69603000000004 407.79715 -165.62617000000003 405.42111 -165.62617000000003 402.81262 C -165.62617000000003 396.93838 -160.86407000000003 392.17627 -154.99993000000003 392.17627 C -153.25083000000004 392.17627 -151.60279000000003 392.60089 -150.15699000000004 393.34911999999997 C -150.45017000000004 393.28842 -150.75349000000003 393.24798 -151.06690000000003 393.24798 C -152.94752000000003 393.24798 -154.54494000000003 394.42086 -155.18192000000002 396.07894 C -158.81165000000001 396.18008 -161.73356 399.16271 -161.73356 402.81261 C -161.73356 404.0259 -161.41007000000002 405.15828 -160.85395 406.13896 C -162.19868 406.34122 -163.2401 407.50397 -163.2401 408.9194 z M -151.06691 402.05432 C -150.70294 402.05432 -150.35916 402.00378 -150.01544 401.92288 C -149.96489000000003 402.20596 -149.93454 402.50931 -149.93454 402.81262000000004 C -149.93454 405.60315 -152.20941 407.87805000000003 -154.99994 407.87805000000003 C -157.79048 407.87805000000003 -160.05524 405.60315 -160.05524 402.81262000000004 C -160.05524 400.18384000000003 -158.03313 398.0101 -155.46506 397.77752000000004 C -155.39427 400.1434 -153.46312 402.05432 -151.06691 402.05432 z M -144.36359 402.81262 C -144.36359 408.68685999999997 -149.12571 413.44890999999996 -154.99993999999998 413.44890999999996 C -157.16361999999998 413.44890999999996 -159.17562999999998 412.80188 -160.85395999999997 411.6896899999999 C -160.71244999999996 411.70991999999995 -160.57088999999996 411.7200499999999 -160.42931999999996 411.7200499999999 C -158.91272999999995 411.7200499999999 -157.67926999999997 410.5168599999999 -157.62867999999997 409.0103899999999 C -156.81983999999997 409.36423999999994 -155.93009999999998 409.5462199999999 -154.99993999999998 409.5462199999999 C -151.27925 409.5462199999999 -148.25620999999998 406.5231799999999 -148.25620999999998 402.8126099999999 C -148.25620999999998 402.2565499999999 -148.32698 401.7105299999999 -148.45842 401.1848299999999 C -147.37659 400.3860299999999 -146.66884 399.10196999999994 -146.66884 397.64609999999993 C -146.66884 396.9181299999999 -146.85082 396.22049999999996 -147.17435999999998 395.6138699999999 C -145.42525 397.50458 -144.36359 400.03223 -144.36359 402.81262 z" stroke-linecap="round" />
</g>
</g>
</g>
</svg>